<svg width="874" height="1234" viewBox="0 0 874 1234" fill="none" xmlns="http://www.w3.org/2000/svg">
<g filter="url(#filter0_d_408_3991)">
<rect x="20" y="30" width="834" height="1194" rx="12" fill="white"/>
<g filter="url(#filter1_d_408_3991)">
<rect x="256" y="275" width="353" height="351" rx="175.5" fill="#4E66FF"/>
<rect x="256.5" y="275.5" width="352" height="350" rx="175" stroke="#1A1E85"/>
</g>
<g filter="url(#filter2_iii_408_3991)">
<rect x="280" y="602" width="304" height="305" rx="152" transform="rotate(-90 280 602)" fill="#3750EF"/>
</g>
<rect x="280.5" y="601.5" width="303" height="304" rx="151.5" transform="rotate(-90 280.5 601.5)" stroke="#E8EBF3"/>
<path d="M505.254 400.996C509.404 405.146 509.404 411.886 505.254 416.037L420.254 501.037C416.104 505.187 409.363 505.187 405.213 501.037L362.713 458.537C358.562 454.386 358.562 447.646 362.713 443.496C366.863 439.345 373.604 439.345 377.754 443.496L412.75 478.459L490.246 400.996C494.396 396.845 501.137 396.845 505.287 400.996H505.254Z" fill="white"/>
<path d="M295.278 217.32C271.15 217.358 249.624 228.928 241.372 245.967C249.647 263.048 271.248 274.615 295.392 274.615H295.506C319.635 274.577 341.161 263 349.412 245.967C341.121 228.853 319.465 217.287 295.282 217.32H295.278ZM295.392 267.578C282.795 267.578 272.587 257.903 272.587 245.964C272.587 234.024 282.795 224.342 295.392 224.342C307.99 224.342 318.198 234.024 318.198 245.964C318.198 257.903 307.99 267.578 295.392 267.578Z" fill="#4E66FF" fill-opacity="0.35"/>
<path d="M305.612 247.327C305.612 251.847 301.035 255.512 295.392 255.512C289.749 255.512 285.172 251.847 285.172 247.327C285.172 242.808 289.749 239.143 295.392 239.143C301.035 239.143 305.612 242.808 305.612 247.327Z" fill="#3750EF" fill-opacity="0.88"/>
<path d="M250.526 221.106C249.735 221.106 248.961 220.753 248.482 220.103L242.401 211.768C241.64 210.726 241.935 209.308 243.059 208.599C244.184 207.893 245.715 208.167 246.48 209.209L252.561 217.544C253.322 218.59 253.027 220.008 251.898 220.713C251.475 220.979 250.996 221.106 250.521 221.106H250.526Z" fill="#3750EF" fill-opacity="0.5"/>
<path d="M264.594 214.768C263.658 214.768 262.764 214.268 262.349 213.428L257.521 203.588C256.957 202.439 257.504 201.088 258.744 200.569C259.984 200.05 261.443 200.557 262.003 201.702L266.831 211.543C267.395 212.692 266.848 214.043 265.608 214.565C265.278 214.704 264.932 214.771 264.59 214.771L264.594 214.768Z" fill="#3750EF" fill-opacity="0.5"/>
<path d="M281.658 210.02C280.516 210.02 279.49 209.275 279.251 208.198L276.775 197.05C276.501 195.814 277.356 194.609 278.69 194.356C280.024 194.102 281.324 194.895 281.598 196.131L284.074 207.279C284.348 208.515 283.492 209.719 282.158 209.973C281.992 210.004 281.825 210.02 281.658 210.02Z" fill="#3750EF" fill-opacity="0.5"/>
<path d="M295.733 209.24C294.373 209.24 293.27 208.218 293.27 206.958V195.046C293.27 193.786 294.373 192.764 295.733 192.764C297.093 192.764 298.196 193.786 298.196 195.046V206.962C298.196 208.222 297.093 209.244 295.733 209.244V209.24Z" fill="#3750EF" fill-opacity="0.5"/>
<path d="M338.686 221.107C338.212 221.107 337.733 220.981 337.309 220.715C336.185 220.01 335.885 218.592 336.647 217.546L342.727 209.21C343.489 208.169 345.019 207.891 346.148 208.6C347.273 209.306 347.572 210.724 346.807 211.77L340.726 220.105C340.251 220.759 339.473 221.107 338.682 221.107H338.686Z" fill="#3750EF" fill-opacity="0.5"/>
<path d="M326.872 214.77C326.53 214.77 326.184 214.702 325.854 214.564C324.618 214.041 324.067 212.69 324.631 211.541L329.459 201.7C330.024 200.555 331.486 200.048 332.718 200.567C333.953 201.09 334.505 202.441 333.941 203.586L329.113 213.427C328.698 214.266 327.804 214.766 326.868 214.766L326.872 214.77Z" fill="#3750EF" fill-opacity="0.5"/>
<path d="M308.941 210.02C308.779 210.02 308.608 210.004 308.441 209.973C307.107 209.719 306.252 208.511 306.525 207.279L309.006 196.131C309.279 194.895 310.579 194.102 311.913 194.356C313.247 194.609 314.103 195.818 313.829 197.05L311.349 208.198C311.109 209.275 310.083 210.02 308.941 210.02Z" fill="#3750EF" fill-opacity="0.5"/>
<path d="M712.959 519.105C706.019 519.116 699.826 522.445 697.453 527.346C699.833 532.26 706.047 535.587 712.992 535.587H713.025C719.966 535.576 726.158 532.246 728.532 527.346C726.147 522.423 719.917 519.096 712.961 519.105H712.959ZM712.992 533.563C709.368 533.563 706.432 530.78 706.432 527.345C706.432 523.911 709.368 521.125 712.992 521.125C716.616 521.125 719.553 523.911 719.553 527.345C719.553 530.78 716.616 533.563 712.992 533.563Z" fill="#3750EF" fill-opacity="0.45"/>
<path d="M715.932 527.735C715.932 529.035 714.616 530.09 712.992 530.09C711.369 530.09 710.052 529.035 710.052 527.735C710.052 526.435 711.369 525.381 712.992 525.381C714.616 525.381 715.932 526.435 715.932 527.735Z" fill="#3750EF" fill-opacity="0.45"/>
<path d="M700.086 520.195C699.858 520.195 699.636 520.093 699.498 519.907L697.749 517.509C697.53 517.209 697.614 516.801 697.938 516.597C698.261 516.394 698.702 516.473 698.922 516.773L700.671 519.17C700.89 519.471 700.805 519.879 700.481 520.082C700.359 520.158 700.221 520.195 700.085 520.195H700.086Z" fill="#3750EF" fill-opacity="0.55"/>
<path d="M704.133 518.372C703.863 518.372 703.606 518.228 703.487 517.986L702.098 515.156C701.936 514.825 702.093 514.436 702.45 514.287C702.807 514.138 703.226 514.284 703.387 514.613L704.776 517.444C704.938 517.774 704.781 518.163 704.424 518.313C704.33 518.353 704.23 518.373 704.131 518.373L704.133 518.372Z" fill="#3750EF" fill-opacity="0.55"/>
<path d="M709.041 517.004C708.713 517.004 708.418 516.79 708.349 516.48L707.636 513.273C707.558 512.917 707.804 512.571 708.188 512.498C708.571 512.425 708.945 512.653 709.024 513.009L709.736 516.215C709.815 516.571 709.569 516.917 709.185 516.99C709.137 517 709.089 517.004 709.041 517.004Z" fill="#3750EF" fill-opacity="0.55"/>
<path d="M713.09 516.781C712.699 516.781 712.382 516.487 712.382 516.124V512.697C712.382 512.335 712.699 512.041 713.09 512.041C713.482 512.041 713.799 512.335 713.799 512.697V516.125C713.799 516.488 713.482 516.782 713.09 516.782V516.781Z" fill="#3750EF" fill-opacity="0.55"/>
<path d="M725.446 520.195C725.31 520.195 725.172 520.159 725.05 520.083C724.727 519.88 724.641 519.472 724.86 519.171L726.609 516.773C726.828 516.473 727.268 516.394 727.593 516.598C727.917 516.8 728.003 517.208 727.782 517.509L726.033 519.907C725.897 520.095 725.673 520.195 725.445 520.195H725.446Z" fill="#3750EF" fill-opacity="0.55"/>
<path d="M722.048 518.371C721.95 518.371 721.85 518.351 721.755 518.311C721.4 518.161 721.241 517.772 721.403 517.442L722.792 514.611C722.955 514.282 723.375 514.136 723.729 514.285C724.085 514.436 724.244 514.824 724.081 515.154L722.693 517.984C722.573 518.226 722.316 518.37 722.047 518.37L722.048 518.371Z" fill="#3750EF" fill-opacity="0.55"/>
<path d="M716.89 517.004C716.843 517.004 716.794 517 716.746 516.99C716.362 516.917 716.116 516.57 716.195 516.215L716.908 513.009C716.987 512.653 717.361 512.425 717.745 512.498C718.129 512.571 718.375 512.918 718.296 513.273L717.582 516.48C717.514 516.79 717.218 517.004 716.89 517.004Z" fill="#3750EF" fill-opacity="0.55"/>
<g opacity="0.7">
<path d="M616 288.3C616 282.741 620.939 278.091 627.218 278.091C633.496 278.091 638.435 282.741 638.435 288.3C638.435 293.858 633.496 298.508 627.218 298.508C620.939 298.508 616 293.858 616 288.3Z" stroke="#9289FA" stroke-opacity="0.46" stroke-width="2"/>
<path d="M117 481.512C117 475.954 121.939 471.304 128.218 471.304C134.496 471.304 139.435 475.954 139.435 481.512C139.435 487.071 134.496 491.721 128.218 491.721C121.939 491.721 117 487.071 117 481.512Z" stroke="#9289FA" stroke-opacity="0.46" stroke-width="2"/>
<path fill-rule="evenodd" clip-rule="evenodd" d="M628 149.441C628 150.16 627.497 150.742 626.877 150.742L599.914 150.742C599.293 150.742 598.79 150.16 598.79 149.441C598.79 148.723 599.293 148.141 599.914 148.141L626.877 148.141C627.497 148.141 628 148.723 628 149.441Z" fill="#9289FA" fill-opacity="0.46" stroke="#9289FA" stroke-opacity="0.46" stroke-width="1.5" stroke-linecap="round"/>
<path fill-rule="evenodd" clip-rule="evenodd" d="M613.395 162.883C612.774 162.883 612.271 162.3 612.271 161.582L612.271 137.301C612.271 136.583 612.774 136 613.395 136C614.015 136 614.518 136.583 614.518 137.301L614.518 161.582C614.518 162.3 614.015 162.883 613.395 162.883Z" fill="#9289FA" fill-opacity="0.46" stroke="#9289FA" stroke-opacity="0.46" stroke-width="1.5" stroke-linecap="round"/>
<path fill-rule="evenodd" clip-rule="evenodd" d="M247.303 400.17C247.303 400.888 246.799 401.471 246.176 401.471L219.127 401.471C218.505 401.471 218 400.888 218 400.17C218 399.452 218.505 398.869 219.127 398.869L246.176 398.869C246.799 398.869 247.303 399.452 247.303 400.17Z" fill="#9289FA" fill-opacity="0.46" stroke="#9289FA" stroke-opacity="0.46" stroke-width="1.5" stroke-linecap="round"/>
<path fill-rule="evenodd" clip-rule="evenodd" d="M232.652 413.611C232.029 413.611 231.525 413.029 231.525 412.311L231.525 388.029C231.525 387.311 232.029 386.729 232.652 386.729C233.274 386.729 233.779 387.311 233.779 388.029L233.779 412.311C233.779 413.029 233.274 413.611 232.652 413.611Z" fill="#9289FA" fill-opacity="0.46" stroke="#9289FA" stroke-opacity="0.46" stroke-width="1.5" stroke-linecap="round"/>
<path fill-rule="evenodd" clip-rule="evenodd" d="M140.303 231.348C140.303 232.066 139.799 232.648 139.176 232.648L112.127 232.648C111.505 232.648 111 232.066 111 231.348C111 230.629 111.505 230.047 112.127 230.047L139.176 230.047C139.799 230.047 140.303 230.629 140.303 231.348Z" fill="#9289FA" fill-opacity="0.46" stroke="#9289FA" stroke-opacity="0.46" stroke-width="1.5" stroke-linecap="round"/>
<path fill-rule="evenodd" clip-rule="evenodd" d="M125.652 244.789C125.029 244.789 124.525 244.207 124.525 243.488L124.525 219.207C124.525 218.489 125.029 217.906 125.652 217.906C126.274 217.906 126.779 218.489 126.779 219.207L126.779 243.488C126.779 244.207 126.274 244.789 125.652 244.789Z" fill="#9289FA" fill-opacity="0.46" stroke="#9289FA" stroke-opacity="0.46" stroke-width="1.5" stroke-linecap="round"/>
</g>
<path d="M186.575 355C171.45 355 159.075 342.625 159.075 327.5C159.075 312.375 171.45 300 186.575 300C201.7 300 214.075 312.375 214.075 327.5C214.075 342.625 201.7 355 186.575 355ZM186.575 305.5C174.475 305.5 164.575 315.4 164.575 327.5C164.575 339.6 174.475 349.5 186.575 349.5C198.675 349.5 208.575 339.6 208.575 327.5C208.575 315.4 198.675 305.5 186.575 305.5Z" fill="#4E66FF" fill-opacity="0.35"/>
<path d="M193.915 337.588H180.44C178.79 337.588 177.69 336.488 177.69 334.838V321.363C177.69 319.713 178.79 318.613 180.44 318.613C182.09 318.613 183.19 319.713 183.19 321.363V332.088H193.915C195.565 332.088 196.665 333.188 196.665 334.838C196.665 336.488 195.565 337.588 193.915 337.588Z" fill="#4E66FF" fill-opacity="0.35"/>
<path d="M273.513 828.656H275.641C273.873 830.646 272.021 835.123 272.021 839.71C272.021 844.297 273.873 848.774 275.641 850.763H273.513C271.054 848.193 269.506 844.214 269.506 839.71C269.506 835.206 271.054 831.226 273.513 828.656ZM280.65 836.421C279.572 836.421 278.743 835.565 278.743 834.515C278.743 833.465 279.572 832.608 280.65 832.608C281.7 832.608 282.557 833.465 282.557 834.515C282.557 835.565 281.7 836.421 280.65 836.421ZM280.65 848.166C279.572 848.166 278.743 847.309 278.743 846.259C278.743 845.181 279.572 844.325 280.65 844.325C281.7 844.325 282.557 845.181 282.557 846.259C282.557 847.309 281.7 848.166 280.65 848.166ZM286.49 831.42H295.554C300.997 831.42 303.319 833.796 303.319 839.378V848H300.721V839.378C300.721 835.454 299.146 833.63 295.498 833.63H291.436V844.242C291.436 846.922 289.999 848.166 287.899 848.166C286.932 848.166 285.605 847.972 284.832 847.696L285.191 845.651C285.744 845.845 286.324 845.955 287.098 845.955C288.369 845.955 288.866 845.209 288.866 843.523V833.63H286.49V831.42ZM319.905 839.434V848H317.391V839.544C317.391 835.344 315.291 833.299 311.864 833.299C309.957 833.299 308.355 833.879 306.779 834.708L305.895 832.857C308.106 831.641 310.206 831.199 312.279 831.199C316.728 831.199 319.905 833.686 319.905 839.434ZM333.642 831.171C338.091 831.171 341.048 834.653 341.048 839.627C341.048 846.563 336.903 849.769 330.492 847.364L331.072 845.264C335.963 847.171 338.589 844.877 338.589 839.627C338.589 835.869 336.544 833.465 333.753 833.465C330.685 833.465 329.138 836.477 328.143 840.124L326.015 848H323.445L325.573 840.235L322.589 831.42H325.159L326.955 837.029C328.06 833.769 330.271 831.171 333.642 831.171ZM360.635 838.991V831.42H363.233V838.936C363.233 844.739 359.64 848.332 353.782 848.332C347.923 848.332 344.331 844.739 344.331 838.936V831.42H346.929V838.991C346.929 843.358 349.581 846.121 353.782 846.121C357.982 846.121 360.635 843.358 360.635 838.991ZM352.483 831.42H355.081V840.926L352.483 841.478V831.42ZM377.08 831.171C381.529 831.171 384.485 834.653 384.485 839.627C384.485 846.563 380.34 849.769 373.929 847.364L374.51 845.264C379.401 847.171 382.026 844.877 382.026 839.627C382.026 835.869 379.981 833.465 377.19 833.465C374.123 833.465 372.575 836.477 371.58 840.124L369.453 848H366.883L369.011 840.235L366.026 831.42H368.596L370.392 837.029C371.498 833.769 373.708 831.171 377.08 831.171ZM400.344 839.019V845.789H402.803V848H386.555V845.789H397.746V839.185C397.746 835.703 396.227 833.299 392.689 833.299C390.645 833.299 388.848 833.962 387.107 834.902L386.251 832.967C388.434 831.696 390.727 831.088 393.076 831.088C398.271 831.088 400.344 834.128 400.344 839.019ZM413.583 831.42H422.647C428.091 831.42 430.412 833.796 430.412 839.378V848H427.815V839.378C427.815 835.454 426.24 833.63 422.592 833.63H418.53V844.242C418.53 846.922 417.093 848.166 414.993 848.166C414.026 848.166 412.699 847.972 411.925 847.696L412.285 845.651C412.837 845.845 413.418 845.955 414.191 845.955C415.462 845.955 415.96 845.209 415.96 843.523V833.63H413.583V831.42ZM434.766 831.42H437.364V848H434.766V831.42ZM448.389 848H441.121V845.789H445.791V837.029C445.791 834.736 445.1 833.63 443.276 833.63H441.729V831.42H444.022C447.117 831.42 448.389 833.078 448.389 836.366V848ZM465.312 839.434V848H462.797V839.544C462.797 835.344 460.697 833.299 457.27 833.299C455.364 833.299 453.761 833.879 452.186 834.708L451.301 832.857C453.512 831.641 455.612 831.199 457.685 831.199C462.134 831.199 465.312 833.686 465.312 839.434ZM480.602 836.836V831.42H483.199V836.836C483.199 844.297 480.298 848.691 468.249 849.216L468.056 847.088C469.742 846.978 471.234 846.784 472.505 846.563L468.609 831.42H471.289L474.992 845.955C479.275 844.573 480.602 841.921 480.602 836.836ZM500.188 839.019V845.789H502.647V848H486.398V845.789H497.59V839.185C497.59 835.703 496.07 833.299 492.533 833.299C490.488 833.299 488.692 833.962 486.951 834.902L486.095 832.967C488.278 831.696 490.571 831.088 492.92 831.088C498.115 831.088 500.188 834.128 500.188 839.019ZM512.598 833.63V831.42H517.876C523.21 831.42 525.42 833.824 525.42 839.599V852.808H522.823V839.599C522.823 835.427 521.248 833.63 517.71 833.63H512.598ZM529.073 841.23V831.42H531.67V840.788L529.073 841.23ZM551.979 838.991V831.42H554.576V838.936C554.576 844.739 550.984 848.332 545.126 848.332C539.267 848.332 535.675 844.739 535.675 838.936V831.42H538.272V838.991C538.272 843.358 540.925 846.121 545.126 846.121C549.326 846.121 551.979 843.358 551.979 838.991ZM543.827 831.42H546.424V840.926L543.827 841.478V831.42ZM568.423 831.171C572.872 831.171 575.829 834.653 575.829 839.627C575.829 846.563 571.684 849.769 565.273 847.364L565.853 845.264C570.745 847.171 573.37 844.877 573.37 839.627C573.37 835.869 571.325 833.465 568.534 833.465C565.467 833.465 563.919 836.477 562.924 840.124L560.796 848H558.226L560.354 840.235L557.37 831.42H559.94L561.736 837.029C562.841 833.769 565.052 831.171 568.423 831.171ZM578.677 831.42H587.741C593.185 831.42 595.506 833.796 595.506 839.378V848H592.909V839.378C592.909 835.454 591.333 833.63 587.686 833.63H583.624V844.242C583.624 846.922 582.187 848.166 580.086 848.166C579.119 848.166 577.793 847.972 577.019 847.696L577.378 845.651C577.931 845.845 578.511 845.955 579.285 845.955C580.556 845.955 581.054 845.209 581.054 843.523V833.63H578.677V831.42Z" fill="#1A1E85"/>
<path d="M292.553 781.276V796H284.763V781.609C284.763 776.574 282.294 773.677 277.924 773.677C275.027 773.677 272.462 774.817 270.23 775.957L267.57 770.21C271.75 767.883 275.644 767.123 279.301 767.123C286.806 767.123 292.553 771.397 292.553 781.276ZM298.56 774.389V767.503H326.013V783.699C326.013 793.815 320.836 796.332 315.326 796.332C313.189 796.332 311.479 796.095 309.627 795.525L310.529 788.876C311.717 789.208 312.904 789.446 314.186 789.446C316.894 789.446 318.223 788.448 318.223 782.939V774.389H298.56ZM298.798 780.421L306.587 779.472V803.124H298.798V780.421ZM344.621 796H330.99V789.113H336.547V777.999C336.547 775.292 336.024 774.389 333.839 774.389H331.75V767.503H336.357C342.341 767.503 344.621 770.115 344.621 775.767V796ZM376.514 779.756V767.503H384.588V779.519C384.588 790.585 378.271 796.617 366.967 796.617C355.663 796.617 349.346 790.585 349.346 779.519V767.503H357.421V779.756C357.421 786.263 360.84 789.731 366.967 789.731C373.094 789.731 376.514 786.263 376.514 779.756ZM362.93 767.503H371.004V783.176L362.93 784.791V767.503ZM403.976 767.503H412.05V803.124H403.976V767.503ZM418.757 767.503H433.481C444.31 767.503 448.584 771.397 448.584 781.656V796H440.51V781.656C440.51 776.669 438.61 774.389 433.386 774.389H430.061V788.591C430.061 793.958 426.736 796.285 422.747 796.285C420.704 796.285 417.617 795.905 416.192 795.383L417.237 789.018C417.949 789.208 418.852 789.446 420.087 789.446C421.607 789.446 422.082 788.638 422.082 786.216V774.389H418.757V767.503ZM467.028 796H453.397V789.113H458.954V777.999C458.954 775.292 458.431 774.389 456.247 774.389H454.157V767.503H458.764C464.748 767.503 467.028 770.115 467.028 775.767V796ZM485.062 802.507L487.294 789.066H495.084L491.046 802.507H485.062ZM499.761 774.389V767.503H511.398C522.037 767.503 526.739 772.157 526.739 782.891V796H518.665V782.891C518.665 776.812 516.622 774.389 511.398 774.389H499.761ZM499.999 796V781.229L508.073 780.184V796H499.999ZM532.686 774.389V767.503H544.323C554.962 767.503 559.664 772.157 559.664 782.891V796H551.589V782.891C551.589 776.812 549.547 774.389 544.323 774.389H532.686ZM532.924 796V781.229L540.998 780.184V796H532.924ZM565.753 767.503H573.828V796H565.753V767.503ZM596.493 767.503V774.389C588.656 774.389 587.089 779.804 593.358 796H584.761C580.202 783.319 581.199 776.764 586.139 774.389H579.014V767.503H596.493Z" fill="#1A1E85"/>
</g>
<defs>
<filter id="filter0_d_408_3991" x="0" y="0" width="874" height="1234" filterUnits="userSpaceOnUse" color-interpolation-filters="sRGB">
<feFlood flood-opacity="0" result="BackgroundImageFix"/>
<feColorMatrix in="SourceAlpha" type="matrix" values="0 0 0 0 0 0 0 0 0 0 0 0 0 0 0 0 0 0 127 0" result="hardAlpha"/>
<feOffset dy="-10"/>
<feGaussianBlur stdDeviation="10"/>
<feColorMatrix type="matrix" values="0 0 0 0 0 0 0 0 0 0 0 0 0 0 0 0 0 0 0.05 0"/>
<feBlend mode="normal" in2="BackgroundImageFix" result="effect1_dropShadow_408_3991"/>
<feBlend mode="normal" in="SourceGraphic" in2="effect1_dropShadow_408_3991" result="shape"/>
</filter>
<filter id="filter1_d_408_3991" x="256" y="275" width="372" height="371" filterUnits="userSpaceOnUse" color-interpolation-filters="sRGB">
<feFlood flood-opacity="0" result="BackgroundImageFix"/>
<feColorMatrix in="SourceAlpha" type="matrix" values="0 0 0 0 0 0 0 0 0 0 0 0 0 0 0 0 0 0 127 0" result="hardAlpha"/>
<feMorphology radius="6" operator="erode" in="SourceAlpha" result="effect1_dropShadow_408_3991"/>
<feOffset dx="13" dy="14"/>
<feGaussianBlur stdDeviation="6"/>
<feColorMatrix type="matrix" values="0 0 0 0 0.572549 0 0 0 0 0.537255 0 0 0 0 0.980392 0 0 0 0.46 0"/>
<feBlend mode="normal" in2="BackgroundImageFix" result="effect1_dropShadow_408_3991"/>
<feBlend mode="normal" in="SourceGraphic" in2="effect1_dropShadow_408_3991" result="shape"/>
</filter>
<filter id="filter2_iii_408_3991" x="268" y="286" width="327" height="327" filterUnits="userSpaceOnUse" color-interpolation-filters="sRGB">
<feFlood flood-opacity="0" result="BackgroundImageFix"/>
<feBlend mode="normal" in="SourceGraphic" in2="BackgroundImageFix" result="shape"/>
<feColorMatrix in="SourceAlpha" type="matrix" values="0 0 0 0 0 0 0 0 0 0 0 0 0 0 0 0 0 0 127 0" result="hardAlpha"/>
<feMorphology radius="1" operator="dilate" in="SourceAlpha" result="effect1_innerShadow_408_3991"/>
<feOffset dx="10" dy="11"/>
<feGaussianBlur stdDeviation="15"/>
<feComposite in2="hardAlpha" operator="arithmetic" k2="-1" k3="1"/>
<feColorMatrix type="matrix" values="0 0 0 0 0.137255 0 0 0 0 0.156863 0 0 0 0 0.176471 0 0 0 0.5 0"/>
<feBlend mode="normal" in2="shape" result="effect1_innerShadow_408_3991"/>
<feColorMatrix in="SourceAlpha" type="matrix" values="0 0 0 0 0 0 0 0 0 0 0 0 0 0 0 0 0 0 127 0" result="hardAlpha"/>
<feOffset dx="7" dy="7"/>
<feGaussianBlur stdDeviation="4"/>
<feComposite in2="hardAlpha" operator="arithmetic" k2="-1" k3="1"/>
<feColorMatrix type="matrix" values="0 0 0 0 0.137255 0 0 0 0 0.156863 0 0 0 0 0.176471 0 0 0 0.25 0"/>
<feBlend mode="normal" in2="effect1_innerShadow_408_3991" result="effect2_innerShadow_408_3991"/>
<feColorMatrix in="SourceAlpha" type="matrix" values="0 0 0 0 0 0 0 0 0 0 0 0 0 0 0 0 0 0 127 0" result="hardAlpha"/>
<feOffset dx="-12" dy="-12"/>
<feGaussianBlur stdDeviation="15"/>
<feComposite in2="hardAlpha" operator="arithmetic" k2="-1" k3="1"/>
<feColorMatrix type="matrix" values="0 0 0 0 0.282353 0 0 0 0 0.32549 0 0 0 0 0.360784 0 0 0 0.24 0"/>
<feBlend mode="normal" in2="effect2_innerShadow_408_3991" result="effect3_innerShadow_408_3991"/>
</filter>
</defs>
</svg>
